<mxfile host="app.diagrams.net" modified="2023-07-24T10:53:18.979Z" agent="Mozilla/5.0 (Macintosh; Intel Mac OS X 10_15_7) AppleWebKit/537.36 (KHTML, like Gecko) Chrome/114.0.0.0 Safari/537.36" etag="vniuDHQ0XVijlF-UZ78V" version="21.6.5" type="github">
  <diagram name="Page-1" id="74e2e168-ea6b-b213-b513-2b3c1d86103e">
    <mxGraphModel dx="1229" dy="1516" grid="1" gridSize="10" guides="1" tooltips="1" connect="1" arrows="1" fold="1" page="1" pageScale="1" pageWidth="1100" pageHeight="850" background="none" math="0" shadow="0">
      <root>
        <mxCell id="0" />
        <mxCell id="1" parent="0" />
        <mxCell id="77e6c97f196da883-1" value="uat 部署流程" style="swimlane;html=1;childLayout=stackLayout;startSize=20;rounded=0;shadow=0;labelBackgroundColor=none;strokeWidth=1;fontFamily=Verdana;fontSize=8;align=center;fillColor=#f5f5f5;fontColor=#333333;strokeColor=#666666;" parent="1" vertex="1">
          <mxGeometry x="70" y="40" width="1280" height="610" as="geometry" />
        </mxCell>
        <mxCell id="77e6c97f196da883-2" value="1 信息确认" style="swimlane;html=1;startSize=20;" parent="77e6c97f196da883-1" vertex="1">
          <mxGeometry y="20" width="160" height="590" as="geometry" />
        </mxCell>
        <mxCell id="IIWUCs54Z6hcs_hi1kmr-11" value="prd 评审" style="rounded=1;whiteSpace=wrap;html=1;shadow=0;labelBackgroundColor=none;strokeWidth=1;fontFamily=Verdana;fontSize=8;align=center;" vertex="1" parent="77e6c97f196da883-2">
          <mxGeometry x="30" y="40" width="100" height="60" as="geometry" />
        </mxCell>
        <mxCell id="IIWUCs54Z6hcs_hi1kmr-12" value="bank pic确认版本信息、项目列表、版本节奏" style="rounded=1;whiteSpace=wrap;html=1;shadow=0;labelBackgroundColor=none;strokeWidth=1;fontFamily=Verdana;fontSize=8;align=center;fillColor=#f8cecc;strokeColor=#b85450;" vertex="1" parent="77e6c97f196da883-2">
          <mxGeometry x="30" y="120" width="100" height="60" as="geometry" />
        </mxCell>
        <mxCell id="IIWUCs54Z6hcs_hi1kmr-15" style="edgeStyle=orthogonalEdgeStyle;rounded=1;html=1;labelBackgroundColor=none;startArrow=none;startFill=0;startSize=5;endArrow=classicThin;endFill=1;endSize=5;jettySize=auto;orthogonalLoop=1;strokeWidth=1;fontFamily=Verdana;fontSize=8" edge="1" parent="77e6c97f196da883-2" source="IIWUCs54Z6hcs_hi1kmr-11" target="IIWUCs54Z6hcs_hi1kmr-12">
          <mxGeometry relative="1" as="geometry" />
        </mxCell>
        <mxCell id="77e6c97f196da883-3" value="2 创建checklist" style="swimlane;html=1;startSize=20;" parent="77e6c97f196da883-1" vertex="1">
          <mxGeometry x="160" y="20" width="160" height="590" as="geometry" />
        </mxCell>
        <mxCell id="IIWUCs54Z6hcs_hi1kmr-20" style="edgeStyle=orthogonalEdgeStyle;rounded=0;orthogonalLoop=1;jettySize=auto;html=1;exitX=0.5;exitY=1;exitDx=0;exitDy=0;" edge="1" parent="77e6c97f196da883-3" source="IIWUCs54Z6hcs_hi1kmr-13" target="IIWUCs54Z6hcs_hi1kmr-19">
          <mxGeometry relative="1" as="geometry" />
        </mxCell>
        <mxCell id="IIWUCs54Z6hcs_hi1kmr-21" value="通知各个小组bank pic" style="edgeLabel;html=1;align=center;verticalAlign=middle;resizable=0;points=[];" vertex="1" connectable="0" parent="IIWUCs54Z6hcs_hi1kmr-20">
          <mxGeometry x="-0.3632" y="-1" relative="1" as="geometry">
            <mxPoint x="1" y="12" as="offset" />
          </mxGeometry>
        </mxCell>
        <mxCell id="IIWUCs54Z6hcs_hi1kmr-13" value="bank pic 创建checklist" style="rounded=1;whiteSpace=wrap;html=1;shadow=0;labelBackgroundColor=none;strokeWidth=1;fontFamily=Verdana;fontSize=8;align=center;fillColor=#f8cecc;strokeColor=#b85450;" vertex="1" parent="77e6c97f196da883-3">
          <mxGeometry x="30" y="190" width="100" height="60" as="geometry" />
        </mxCell>
        <mxCell id="IIWUCs54Z6hcs_hi1kmr-23" style="edgeStyle=orthogonalEdgeStyle;rounded=0;orthogonalLoop=1;jettySize=auto;html=1;exitX=0.5;exitY=1;exitDx=0;exitDy=0;entryX=0.5;entryY=0;entryDx=0;entryDy=0;" edge="1" parent="77e6c97f196da883-3" source="IIWUCs54Z6hcs_hi1kmr-19" target="IIWUCs54Z6hcs_hi1kmr-22">
          <mxGeometry relative="1" as="geometry" />
        </mxCell>
        <mxCell id="IIWUCs54Z6hcs_hi1kmr-19" value="小组bank pic 完成小组部分的checklist填写" style="rounded=1;whiteSpace=wrap;html=1;shadow=0;labelBackgroundColor=none;strokeWidth=1;fontFamily=Verdana;fontSize=8;align=center;fillColor=#fff2cc;strokeColor=#d6b656;" vertex="1" parent="77e6c97f196da883-3">
          <mxGeometry x="30" y="305" width="100" height="60" as="geometry" />
        </mxCell>
        <mxCell id="IIWUCs54Z6hcs_hi1kmr-22" value="完成checklist" style="rounded=1;whiteSpace=wrap;html=1;shadow=0;labelBackgroundColor=none;strokeWidth=1;fontFamily=Verdana;fontSize=8;align=center;fillColor=#fff2cc;strokeColor=#d6b656;" vertex="1" parent="77e6c97f196da883-3">
          <mxGeometry x="30" y="400" width="100" height="60" as="geometry" />
        </mxCell>
        <mxCell id="IIWUCs54Z6hcs_hi1kmr-25" value="checkout list中是否有新增项目" style="rhombus;whiteSpace=wrap;html=1;rounded=0;shadow=0;labelBackgroundColor=none;strokeWidth=1;fontFamily=Verdana;fontSize=8;align=center;fillColor=#fff2cc;strokeColor=#d6b656;" vertex="1" parent="77e6c97f196da883-3">
          <mxGeometry x="40" y="510" width="80" height="60" as="geometry" />
        </mxCell>
        <mxCell id="IIWUCs54Z6hcs_hi1kmr-27" style="edgeStyle=orthogonalEdgeStyle;rounded=0;orthogonalLoop=1;jettySize=auto;html=1;entryX=0.5;entryY=0;entryDx=0;entryDy=0;" edge="1" parent="77e6c97f196da883-3" source="IIWUCs54Z6hcs_hi1kmr-22" target="IIWUCs54Z6hcs_hi1kmr-25">
          <mxGeometry relative="1" as="geometry" />
        </mxCell>
        <mxCell id="77e6c97f196da883-4" value="3 初始化仓库" style="swimlane;html=1;startSize=20;" parent="77e6c97f196da883-1" vertex="1">
          <mxGeometry x="320" y="20" width="160" height="590" as="geometry" />
        </mxCell>
        <mxCell id="IIWUCs54Z6hcs_hi1kmr-34" style="edgeStyle=orthogonalEdgeStyle;rounded=0;orthogonalLoop=1;jettySize=auto;html=1;exitX=0.5;exitY=1;exitDx=0;exitDy=0;entryX=0.5;entryY=0;entryDx=0;entryDy=0;" edge="1" parent="77e6c97f196da883-4" source="IIWUCs54Z6hcs_hi1kmr-30" target="IIWUCs54Z6hcs_hi1kmr-33">
          <mxGeometry relative="1" as="geometry" />
        </mxCell>
        <mxCell id="IIWUCs54Z6hcs_hi1kmr-30" value="小组bank pic初始化仓库" style="rounded=1;whiteSpace=wrap;html=1;shadow=0;labelBackgroundColor=none;strokeWidth=1;fontFamily=Verdana;fontSize=8;align=center;fillColor=#fff2cc;strokeColor=#d6b656;" vertex="1" parent="77e6c97f196da883-4">
          <mxGeometry x="30" y="130" width="100" height="60" as="geometry" />
        </mxCell>
        <mxCell id="IIWUCs54Z6hcs_hi1kmr-35" value="" style="edgeStyle=orthogonalEdgeStyle;rounded=0;orthogonalLoop=1;jettySize=auto;html=1;" edge="1" parent="77e6c97f196da883-4" source="IIWUCs54Z6hcs_hi1kmr-33" target="77e6c97f196da883-8">
          <mxGeometry relative="1" as="geometry" />
        </mxCell>
        <mxCell id="IIWUCs54Z6hcs_hi1kmr-33" value="同步shopee代码至新仓库uat、master分支" style="rounded=1;whiteSpace=wrap;html=1;shadow=0;labelBackgroundColor=none;strokeWidth=1;fontFamily=Verdana;fontSize=8;align=center;fillColor=#fff2cc;strokeColor=#d6b656;" vertex="1" parent="77e6c97f196da883-4">
          <mxGeometry x="30" y="240" width="100" height="60" as="geometry" />
        </mxCell>
        <mxCell id="77e6c97f196da883-8" value="基于master分支创建deploy分支，并新增Jenkins file文件" style="rounded=1;whiteSpace=wrap;html=1;shadow=0;labelBackgroundColor=none;strokeWidth=1;fontFamily=Verdana;fontSize=8;align=center;fillColor=#fff2cc;strokeColor=#d6b656;" parent="77e6c97f196da883-4" vertex="1">
          <mxGeometry x="30" y="350" width="100" height="60" as="geometry" />
        </mxCell>
        <mxCell id="IIWUCs54Z6hcs_hi1kmr-42" style="edgeStyle=orthogonalEdgeStyle;rounded=0;orthogonalLoop=1;jettySize=auto;html=1;entryX=0.5;entryY=0;entryDx=0;entryDy=0;" edge="1" parent="77e6c97f196da883-4" source="IIWUCs54Z6hcs_hi1kmr-40" target="IIWUCs54Z6hcs_hi1kmr-30">
          <mxGeometry relative="1" as="geometry" />
        </mxCell>
        <mxCell id="IIWUCs54Z6hcs_hi1kmr-40" value="小组bank pic确认新增项目" style="rounded=1;whiteSpace=wrap;html=1;shadow=0;labelBackgroundColor=none;strokeWidth=1;fontFamily=Verdana;fontSize=8;align=center;fillColor=#fff2cc;strokeColor=#d6b656;" vertex="1" parent="77e6c97f196da883-4">
          <mxGeometry x="30" y="40" width="100" height="60" as="geometry" />
        </mxCell>
        <mxCell id="77e6c97f196da883-5" value="4 新项目申请" style="swimlane;html=1;startSize=20;" parent="77e6c97f196da883-1" vertex="1">
          <mxGeometry x="480" y="20" width="160" height="590" as="geometry" />
        </mxCell>
        <mxCell id="IIWUCs54Z6hcs_hi1kmr-45" style="edgeStyle=orthogonalEdgeStyle;rounded=0;orthogonalLoop=1;jettySize=auto;html=1;" edge="1" parent="77e6c97f196da883-5" source="IIWUCs54Z6hcs_hi1kmr-36">
          <mxGeometry relative="1" as="geometry">
            <mxPoint x="200" y="80" as="targetPoint" />
          </mxGeometry>
        </mxCell>
        <mxCell id="IIWUCs54Z6hcs_hi1kmr-36" value="找se提单申请新项目jerkins、配置ng路径" style="rounded=1;whiteSpace=wrap;html=1;shadow=0;labelBackgroundColor=none;strokeWidth=1;fontFamily=Verdana;fontSize=8;align=center;fillColor=#fff2cc;strokeColor=#d6b656;" vertex="1" parent="77e6c97f196da883-5">
          <mxGeometry x="30" y="50" width="100" height="60" as="geometry" />
        </mxCell>
        <mxCell id="77e6c97f196da883-6" value="5 同步代码" style="swimlane;html=1;startSize=20;" parent="77e6c97f196da883-1" vertex="1">
          <mxGeometry x="640" y="20" width="160" height="590" as="geometry" />
        </mxCell>
        <mxCell id="IIWUCs54Z6hcs_hi1kmr-47" style="edgeStyle=orthogonalEdgeStyle;rounded=0;orthogonalLoop=1;jettySize=auto;html=1;exitX=0.5;exitY=1;exitDx=0;exitDy=0;entryX=0.5;entryY=0;entryDx=0;entryDy=0;" edge="1" parent="77e6c97f196da883-6" source="77e6c97f196da883-11" target="IIWUCs54Z6hcs_hi1kmr-46">
          <mxGeometry relative="1" as="geometry" />
        </mxCell>
        <mxCell id="77e6c97f196da883-11" value="小组bank pic 通知组内项目pic 基于shopee分支新建bank 分支" style="rounded=1;whiteSpace=wrap;html=1;shadow=0;labelBackgroundColor=none;strokeWidth=1;fontFamily=Verdana;fontSize=8;align=center;fillColor=#fff2cc;strokeColor=#d6b656;" parent="77e6c97f196da883-6" vertex="1">
          <mxGeometry x="40" y="50" width="100" height="60" as="geometry" />
        </mxCell>
        <mxCell id="IIWUCs54Z6hcs_hi1kmr-49" style="edgeStyle=orthogonalEdgeStyle;rounded=0;orthogonalLoop=1;jettySize=auto;html=1;" edge="1" parent="77e6c97f196da883-6" source="IIWUCs54Z6hcs_hi1kmr-46" target="IIWUCs54Z6hcs_hi1kmr-48">
          <mxGeometry relative="1" as="geometry" />
        </mxCell>
        <mxCell id="IIWUCs54Z6hcs_hi1kmr-46" value="项目pic 建立分支并完善check list" style="rounded=1;whiteSpace=wrap;html=1;shadow=0;labelBackgroundColor=none;strokeWidth=1;fontFamily=Verdana;fontSize=8;align=center;fillColor=#dae8fc;strokeColor=#6c8ebf;" vertex="1" parent="77e6c97f196da883-6">
          <mxGeometry x="40" y="160" width="100" height="60" as="geometry" />
        </mxCell>
        <mxCell id="IIWUCs54Z6hcs_hi1kmr-51" style="edgeStyle=orthogonalEdgeStyle;rounded=0;orthogonalLoop=1;jettySize=auto;html=1;exitX=0.5;exitY=1;exitDx=0;exitDy=0;entryX=0.5;entryY=0;entryDx=0;entryDy=0;" edge="1" parent="77e6c97f196da883-6" source="IIWUCs54Z6hcs_hi1kmr-48" target="IIWUCs54Z6hcs_hi1kmr-50">
          <mxGeometry relative="1" as="geometry" />
        </mxCell>
        <mxCell id="IIWUCs54Z6hcs_hi1kmr-48" value="小组bank pic 确认自己组内项目是否同步完成" style="rounded=1;whiteSpace=wrap;html=1;shadow=0;labelBackgroundColor=none;strokeWidth=1;fontFamily=Verdana;fontSize=8;align=center;fillColor=#fff2cc;strokeColor=#d6b656;" vertex="1" parent="77e6c97f196da883-6">
          <mxGeometry x="40" y="260" width="100" height="60" as="geometry" />
        </mxCell>
        <mxCell id="IIWUCs54Z6hcs_hi1kmr-50" value="小组bank pic 进行代码同步工作" style="rounded=1;whiteSpace=wrap;html=1;shadow=0;labelBackgroundColor=none;strokeWidth=1;fontFamily=Verdana;fontSize=8;align=center;fillColor=#fff2cc;strokeColor=#d6b656;" vertex="1" parent="77e6c97f196da883-6">
          <mxGeometry x="40" y="360" width="100" height="60" as="geometry" />
        </mxCell>
        <mxCell id="77e6c97f196da883-7" value="6 同步配置" style="swimlane;html=1;startSize=20;" parent="77e6c97f196da883-1" vertex="1">
          <mxGeometry x="800" y="20" width="160" height="590" as="geometry" />
        </mxCell>
        <mxCell id="IIWUCs54Z6hcs_hi1kmr-70" style="edgeStyle=orthogonalEdgeStyle;rounded=0;orthogonalLoop=1;jettySize=auto;html=1;entryX=0.5;entryY=0;entryDx=0;entryDy=0;" edge="1" parent="77e6c97f196da883-7" source="IIWUCs54Z6hcs_hi1kmr-62" target="IIWUCs54Z6hcs_hi1kmr-65">
          <mxGeometry relative="1" as="geometry" />
        </mxCell>
        <mxCell id="IIWUCs54Z6hcs_hi1kmr-71" value="有" style="edgeLabel;html=1;align=center;verticalAlign=middle;resizable=0;points=[];" vertex="1" connectable="0" parent="IIWUCs54Z6hcs_hi1kmr-70">
          <mxGeometry x="-0.1395" y="1" relative="1" as="geometry">
            <mxPoint as="offset" />
          </mxGeometry>
        </mxCell>
        <mxCell id="IIWUCs54Z6hcs_hi1kmr-62" value="小组bank pic 查看checklist中是否有配置变更的备注&amp;nbsp;" style="rhombus;whiteSpace=wrap;html=1;rounded=0;shadow=0;labelBackgroundColor=none;strokeWidth=1;fontFamily=Verdana;fontSize=8;align=center;fillColor=#fff2cc;strokeColor=#d6b656;" vertex="1" parent="77e6c97f196da883-7">
          <mxGeometry x="20" y="35" width="130" height="90" as="geometry" />
        </mxCell>
        <mxCell id="IIWUCs54Z6hcs_hi1kmr-78" style="edgeStyle=orthogonalEdgeStyle;rounded=0;orthogonalLoop=1;jettySize=auto;html=1;exitX=1;exitY=0.5;exitDx=0;exitDy=0;" edge="1" parent="77e6c97f196da883-7" source="IIWUCs54Z6hcs_hi1kmr-65">
          <mxGeometry relative="1" as="geometry">
            <mxPoint x="200" y="80" as="targetPoint" />
            <Array as="points">
              <mxPoint x="180" y="190" />
              <mxPoint x="180" y="80" />
            </Array>
          </mxGeometry>
        </mxCell>
        <mxCell id="IIWUCs54Z6hcs_hi1kmr-65" value="小组bank pic 同步配置" style="rounded=1;whiteSpace=wrap;html=1;shadow=0;labelBackgroundColor=none;strokeWidth=1;fontFamily=Verdana;fontSize=8;align=center;fillColor=#fff2cc;strokeColor=#d6b656;" vertex="1" parent="77e6c97f196da883-7">
          <mxGeometry x="35" y="160" width="100" height="60" as="geometry" />
        </mxCell>
        <mxCell id="IIWUCs54Z6hcs_hi1kmr-16" style="edgeStyle=orthogonalEdgeStyle;rounded=1;html=1;labelBackgroundColor=none;startArrow=none;startFill=0;startSize=5;endArrow=classicThin;endFill=1;endSize=5;jettySize=auto;orthogonalLoop=1;strokeWidth=1;fontFamily=Verdana;fontSize=8" edge="1" parent="77e6c97f196da883-1" source="IIWUCs54Z6hcs_hi1kmr-12" target="IIWUCs54Z6hcs_hi1kmr-13">
          <mxGeometry relative="1" as="geometry" />
        </mxCell>
        <mxCell id="IIWUCs54Z6hcs_hi1kmr-31" style="edgeStyle=orthogonalEdgeStyle;rounded=0;orthogonalLoop=1;jettySize=auto;html=1;entryX=0;entryY=0.5;entryDx=0;entryDy=0;fillColor=#f8cecc;strokeColor=#B266FF;strokeWidth=2;" edge="1" parent="77e6c97f196da883-1" source="IIWUCs54Z6hcs_hi1kmr-25" target="77e6c97f196da883-11">
          <mxGeometry relative="1" as="geometry">
            <Array as="points">
              <mxPoint x="240" y="640" />
              <mxPoint x="660" y="640" />
              <mxPoint x="660" y="100" />
            </Array>
          </mxGeometry>
        </mxCell>
        <mxCell id="IIWUCs54Z6hcs_hi1kmr-32" value="没有新增项目" style="edgeLabel;html=1;align=center;verticalAlign=middle;resizable=0;points=[];" vertex="1" connectable="0" parent="IIWUCs54Z6hcs_hi1kmr-31">
          <mxGeometry x="-0.3689" y="1" relative="1" as="geometry">
            <mxPoint as="offset" />
          </mxGeometry>
        </mxCell>
        <mxCell id="IIWUCs54Z6hcs_hi1kmr-37" style="edgeStyle=orthogonalEdgeStyle;rounded=0;orthogonalLoop=1;jettySize=auto;html=1;entryX=0;entryY=0.5;entryDx=0;entryDy=0;exitX=0.5;exitY=1;exitDx=0;exitDy=0;" edge="1" parent="77e6c97f196da883-1" source="77e6c97f196da883-8" target="IIWUCs54Z6hcs_hi1kmr-36">
          <mxGeometry relative="1" as="geometry">
            <Array as="points">
              <mxPoint x="400" y="460" />
              <mxPoint x="500" y="460" />
              <mxPoint x="500" y="100" />
            </Array>
          </mxGeometry>
        </mxCell>
        <mxCell id="IIWUCs54Z6hcs_hi1kmr-38" style="edgeStyle=orthogonalEdgeStyle;rounded=0;orthogonalLoop=1;jettySize=auto;html=1;entryX=0;entryY=0.5;entryDx=0;entryDy=0;strokeColor=#67AB9F;exitX=1;exitY=0.5;exitDx=0;exitDy=0;strokeWidth=2;" edge="1" parent="77e6c97f196da883-1" source="IIWUCs54Z6hcs_hi1kmr-25" target="IIWUCs54Z6hcs_hi1kmr-30">
          <mxGeometry relative="1" as="geometry">
            <mxPoint x="270" y="565" as="sourcePoint" />
            <mxPoint x="340" y="120" as="targetPoint" />
          </mxGeometry>
        </mxCell>
        <mxCell id="IIWUCs54Z6hcs_hi1kmr-39" value="有新增项目" style="edgeLabel;html=1;align=center;verticalAlign=middle;resizable=0;points=[];" vertex="1" connectable="0" parent="IIWUCs54Z6hcs_hi1kmr-38">
          <mxGeometry x="-0.9396" y="3" relative="1" as="geometry">
            <mxPoint x="24" y="-57" as="offset" />
          </mxGeometry>
        </mxCell>
        <mxCell id="IIWUCs54Z6hcs_hi1kmr-69" style="edgeStyle=orthogonalEdgeStyle;rounded=0;orthogonalLoop=1;jettySize=auto;html=1;entryX=0;entryY=0.5;entryDx=0;entryDy=0;" edge="1" parent="77e6c97f196da883-1" source="IIWUCs54Z6hcs_hi1kmr-50" target="IIWUCs54Z6hcs_hi1kmr-62">
          <mxGeometry relative="1" as="geometry">
            <Array as="points">
              <mxPoint x="810" y="410" />
              <mxPoint x="810" y="100" />
            </Array>
          </mxGeometry>
        </mxCell>
        <mxCell id="IIWUCs54Z6hcs_hi1kmr-1" value="7 同步翻译资源" style="swimlane;html=1;startSize=20;" vertex="1" parent="1">
          <mxGeometry x="1030" y="60" width="160" height="590" as="geometry" />
        </mxCell>
        <mxCell id="IIWUCs54Z6hcs_hi1kmr-74" value="小组bank pic 查看checklist中是否有翻译资源同步" style="rhombus;whiteSpace=wrap;html=1;rounded=0;shadow=0;labelBackgroundColor=none;strokeWidth=1;fontFamily=Verdana;fontSize=8;align=center;fillColor=#fff2cc;strokeColor=#d6b656;" vertex="1" parent="IIWUCs54Z6hcs_hi1kmr-1">
          <mxGeometry x="38" y="45" width="110" height="70" as="geometry" />
        </mxCell>
        <mxCell id="IIWUCs54Z6hcs_hi1kmr-75" value="小组bank pic 同步配置" style="rounded=1;whiteSpace=wrap;html=1;shadow=0;labelBackgroundColor=none;strokeWidth=1;fontFamily=Verdana;fontSize=8;align=center;fillColor=#fff2cc;strokeColor=#d6b656;" vertex="1" parent="IIWUCs54Z6hcs_hi1kmr-1">
          <mxGeometry x="43" y="160" width="100" height="60" as="geometry" />
        </mxCell>
        <mxCell id="IIWUCs54Z6hcs_hi1kmr-72" style="edgeStyle=orthogonalEdgeStyle;rounded=0;orthogonalLoop=1;jettySize=auto;html=1;entryX=0.5;entryY=0;entryDx=0;entryDy=0;" edge="1" parent="IIWUCs54Z6hcs_hi1kmr-1" source="IIWUCs54Z6hcs_hi1kmr-74" target="IIWUCs54Z6hcs_hi1kmr-75">
          <mxGeometry relative="1" as="geometry" />
        </mxCell>
        <mxCell id="IIWUCs54Z6hcs_hi1kmr-73" value="有" style="edgeLabel;html=1;align=center;verticalAlign=middle;resizable=0;points=[];" vertex="1" connectable="0" parent="IIWUCs54Z6hcs_hi1kmr-72">
          <mxGeometry x="-0.1395" y="1" relative="1" as="geometry">
            <mxPoint as="offset" />
          </mxGeometry>
        </mxCell>
        <mxCell id="IIWUCs54Z6hcs_hi1kmr-3" value="8 部署项目" style="swimlane;html=1;startSize=20;" vertex="1" parent="1">
          <mxGeometry x="1190" y="60" width="160" height="590" as="geometry" />
        </mxCell>
        <mxCell id="IIWUCs54Z6hcs_hi1kmr-81" style="edgeStyle=orthogonalEdgeStyle;rounded=0;orthogonalLoop=1;jettySize=auto;html=1;entryX=0.5;entryY=0;entryDx=0;entryDy=0;" edge="1" parent="IIWUCs54Z6hcs_hi1kmr-3" source="IIWUCs54Z6hcs_hi1kmr-79" target="IIWUCs54Z6hcs_hi1kmr-80">
          <mxGeometry relative="1" as="geometry" />
        </mxCell>
        <mxCell id="IIWUCs54Z6hcs_hi1kmr-79" value="小组bank pic部署项目" style="rounded=1;whiteSpace=wrap;html=1;shadow=0;labelBackgroundColor=none;strokeWidth=1;fontFamily=Verdana;fontSize=8;align=center;fillColor=#fff2cc;strokeColor=#d6b656;" vertex="1" parent="IIWUCs54Z6hcs_hi1kmr-3">
          <mxGeometry x="30" y="50" width="100" height="60" as="geometry" />
        </mxCell>
        <mxCell id="IIWUCs54Z6hcs_hi1kmr-92" style="edgeStyle=orthogonalEdgeStyle;rounded=0;orthogonalLoop=1;jettySize=auto;html=1;exitX=0.5;exitY=1;exitDx=0;exitDy=0;entryX=0.5;entryY=0;entryDx=0;entryDy=0;" edge="1" parent="IIWUCs54Z6hcs_hi1kmr-3" source="IIWUCs54Z6hcs_hi1kmr-80">
          <mxGeometry relative="1" as="geometry">
            <mxPoint x="80" y="260" as="targetPoint" />
          </mxGeometry>
        </mxCell>
        <mxCell id="IIWUCs54Z6hcs_hi1kmr-80" value="小组bank pic 通知项目pic查看项目功能是否正常" style="rounded=1;whiteSpace=wrap;html=1;shadow=0;labelBackgroundColor=none;strokeWidth=1;fontFamily=Verdana;fontSize=8;align=center;fillColor=#fff2cc;strokeColor=#d6b656;" vertex="1" parent="IIWUCs54Z6hcs_hi1kmr-3">
          <mxGeometry x="30" y="160" width="100" height="60" as="geometry" />
        </mxCell>
        <mxCell id="IIWUCs54Z6hcs_hi1kmr-94" style="edgeStyle=orthogonalEdgeStyle;rounded=0;orthogonalLoop=1;jettySize=auto;html=1;" edge="1" parent="IIWUCs54Z6hcs_hi1kmr-3" source="IIWUCs54Z6hcs_hi1kmr-93">
          <mxGeometry relative="1" as="geometry">
            <mxPoint x="80" y="380" as="targetPoint" />
          </mxGeometry>
        </mxCell>
        <mxCell id="IIWUCs54Z6hcs_hi1kmr-95" value="是" style="edgeLabel;html=1;align=center;verticalAlign=middle;resizable=0;points=[];" vertex="1" connectable="0" parent="IIWUCs54Z6hcs_hi1kmr-94">
          <mxGeometry x="0.0084" y="2" relative="1" as="geometry">
            <mxPoint y="-1" as="offset" />
          </mxGeometry>
        </mxCell>
        <mxCell id="IIWUCs54Z6hcs_hi1kmr-98" style="edgeStyle=orthogonalEdgeStyle;rounded=0;orthogonalLoop=1;jettySize=auto;html=1;entryX=0;entryY=0.5;entryDx=0;entryDy=0;" edge="1" parent="IIWUCs54Z6hcs_hi1kmr-3" source="IIWUCs54Z6hcs_hi1kmr-93" target="IIWUCs54Z6hcs_hi1kmr-99">
          <mxGeometry relative="1" as="geometry">
            <mxPoint x="20" y="490" as="targetPoint" />
            <Array as="points">
              <mxPoint x="10" y="290" />
              <mxPoint x="10" y="480" />
            </Array>
          </mxGeometry>
        </mxCell>
        <mxCell id="IIWUCs54Z6hcs_hi1kmr-93" value="项目pic 查看项目是和正常" style="rhombus;whiteSpace=wrap;html=1;rounded=0;shadow=0;labelBackgroundColor=none;strokeWidth=1;fontFamily=Verdana;fontSize=8;align=center;fillColor=#dae8fc;strokeColor=#6c8ebf;" vertex="1" parent="IIWUCs54Z6hcs_hi1kmr-3">
          <mxGeometry x="40" y="260" width="80" height="60" as="geometry" />
        </mxCell>
        <mxCell id="IIWUCs54Z6hcs_hi1kmr-96" value="结束" style="rounded=1;whiteSpace=wrap;html=1;shadow=0;labelBackgroundColor=none;strokeWidth=1;fontFamily=Verdana;fontSize=8;align=center;fillColor=#ffe6cc;strokeColor=#d79b00;" vertex="1" parent="IIWUCs54Z6hcs_hi1kmr-3">
          <mxGeometry x="40" y="380" width="80" height="30" as="geometry" />
        </mxCell>
        <mxCell id="IIWUCs54Z6hcs_hi1kmr-99" value="小组bank pic 排查代码部署相关问题" style="rounded=1;whiteSpace=wrap;html=1;shadow=0;labelBackgroundColor=none;strokeWidth=1;fontFamily=Verdana;fontSize=8;align=center;fillColor=#fff2cc;strokeColor=#d6b656;" vertex="1" parent="IIWUCs54Z6hcs_hi1kmr-3">
          <mxGeometry x="30" y="450" width="100" height="60" as="geometry" />
        </mxCell>
        <mxCell id="IIWUCs54Z6hcs_hi1kmr-76" style="edgeStyle=orthogonalEdgeStyle;rounded=0;orthogonalLoop=1;jettySize=auto;html=1;exitX=1;exitY=0.5;exitDx=0;exitDy=0;entryX=0;entryY=0.5;entryDx=0;entryDy=0;" edge="1" parent="1" source="IIWUCs54Z6hcs_hi1kmr-62" target="IIWUCs54Z6hcs_hi1kmr-74">
          <mxGeometry relative="1" as="geometry" />
        </mxCell>
        <mxCell id="IIWUCs54Z6hcs_hi1kmr-77" value="没有" style="edgeLabel;html=1;align=center;verticalAlign=middle;resizable=0;points=[];" vertex="1" connectable="0" parent="IIWUCs54Z6hcs_hi1kmr-76">
          <mxGeometry x="0.0502" relative="1" as="geometry">
            <mxPoint as="offset" />
          </mxGeometry>
        </mxCell>
        <mxCell id="IIWUCs54Z6hcs_hi1kmr-82" value="" style="rounded=0;whiteSpace=wrap;html=1;fillColor=#f8cecc;strokeColor=#b85450;" vertex="1" parent="1">
          <mxGeometry x="80" width="40" height="20" as="geometry" />
        </mxCell>
        <mxCell id="IIWUCs54Z6hcs_hi1kmr-83" value="bank&amp;nbsp; pic" style="text;html=1;strokeColor=none;fillColor=none;align=center;verticalAlign=middle;whiteSpace=wrap;rounded=0;" vertex="1" parent="1">
          <mxGeometry x="100" y="-5" width="90" height="30" as="geometry" />
        </mxCell>
        <mxCell id="IIWUCs54Z6hcs_hi1kmr-84" value="" style="rounded=0;whiteSpace=wrap;html=1;fillColor=#fff2cc;strokeColor=#d6b656;" vertex="1" parent="1">
          <mxGeometry x="180" width="40" height="20" as="geometry" />
        </mxCell>
        <mxCell id="IIWUCs54Z6hcs_hi1kmr-85" value="小组 bank&amp;nbsp; pic" style="text;html=1;strokeColor=none;fillColor=none;align=center;verticalAlign=middle;whiteSpace=wrap;rounded=0;" vertex="1" parent="1">
          <mxGeometry x="215" y="-5" width="90" height="30" as="geometry" />
        </mxCell>
        <mxCell id="IIWUCs54Z6hcs_hi1kmr-86" value="" style="rounded=0;whiteSpace=wrap;html=1;fillColor=#dae8fc;strokeColor=#6c8ebf;" vertex="1" parent="1">
          <mxGeometry x="311" width="40" height="20" as="geometry" />
        </mxCell>
        <mxCell id="IIWUCs54Z6hcs_hi1kmr-87" value="项目pic" style="text;html=1;strokeColor=none;fillColor=none;align=center;verticalAlign=middle;whiteSpace=wrap;rounded=0;" vertex="1" parent="1">
          <mxGeometry x="327" y="-5" width="90" height="30" as="geometry" />
        </mxCell>
        <mxCell id="IIWUCs54Z6hcs_hi1kmr-89" style="edgeStyle=orthogonalEdgeStyle;rounded=0;orthogonalLoop=1;jettySize=auto;html=1;exitX=1;exitY=0.5;exitDx=0;exitDy=0;entryX=0;entryY=0.5;entryDx=0;entryDy=0;" edge="1" parent="1" source="IIWUCs54Z6hcs_hi1kmr-74" target="IIWUCs54Z6hcs_hi1kmr-79">
          <mxGeometry relative="1" as="geometry" />
        </mxCell>
        <mxCell id="IIWUCs54Z6hcs_hi1kmr-90" value="没有" style="edgeLabel;html=1;align=center;verticalAlign=middle;resizable=0;points=[];" vertex="1" connectable="0" parent="IIWUCs54Z6hcs_hi1kmr-89">
          <mxGeometry x="-0.0092" y="1" relative="1" as="geometry">
            <mxPoint as="offset" />
          </mxGeometry>
        </mxCell>
        <mxCell id="IIWUCs54Z6hcs_hi1kmr-174" value="live 部署流程" style="swimlane;html=1;childLayout=stackLayout;startSize=20;rounded=0;shadow=0;labelBackgroundColor=none;strokeWidth=1;fontFamily=Verdana;fontSize=8;align=center;fillColor=#f5f5f5;fontColor=#333333;strokeColor=#666666;" vertex="1" parent="1">
          <mxGeometry x="500" y="895" width="640" height="580" as="geometry" />
        </mxCell>
        <mxCell id="IIWUCs54Z6hcs_hi1kmr-175" value="1 同步代码" style="swimlane;html=1;startSize=20;" vertex="1" parent="IIWUCs54Z6hcs_hi1kmr-174">
          <mxGeometry y="20" width="160" height="560" as="geometry" />
        </mxCell>
        <mxCell id="IIWUCs54Z6hcs_hi1kmr-177" value="小组bank pic同步shopee bank分支到bank master分支" style="rounded=1;whiteSpace=wrap;html=1;shadow=0;labelBackgroundColor=none;strokeWidth=1;fontFamily=Verdana;fontSize=8;align=center;fillColor=#fff2cc;strokeColor=#d6b656;" vertex="1" parent="IIWUCs54Z6hcs_hi1kmr-175">
          <mxGeometry x="30" y="165" width="100" height="60" as="geometry" />
        </mxCell>
        <mxCell id="IIWUCs54Z6hcs_hi1kmr-210" style="edgeStyle=orthogonalEdgeStyle;rounded=0;orthogonalLoop=1;jettySize=auto;html=1;entryX=0.5;entryY=0;entryDx=0;entryDy=0;" edge="1" parent="IIWUCs54Z6hcs_hi1kmr-175" source="IIWUCs54Z6hcs_hi1kmr-209" target="IIWUCs54Z6hcs_hi1kmr-177">
          <mxGeometry relative="1" as="geometry" />
        </mxCell>
        <mxCell id="IIWUCs54Z6hcs_hi1kmr-209" value="小组bank pic 确认bank uat bug已经修复完成" style="rounded=1;whiteSpace=wrap;html=1;shadow=0;labelBackgroundColor=none;strokeWidth=1;fontFamily=Verdana;fontSize=8;align=center;fillColor=#fff2cc;strokeColor=#d6b656;" vertex="1" parent="IIWUCs54Z6hcs_hi1kmr-175">
          <mxGeometry x="30" y="65" width="100" height="60" as="geometry" />
        </mxCell>
        <mxCell id="IIWUCs54Z6hcs_hi1kmr-185" value="2 同步翻译资源" style="swimlane;html=1;startSize=20;" vertex="1" parent="IIWUCs54Z6hcs_hi1kmr-174">
          <mxGeometry x="160" y="20" width="160" height="560" as="geometry" />
        </mxCell>
        <mxCell id="IIWUCs54Z6hcs_hi1kmr-186" value="小组bank pic 查看checklist中是否有配置变更的备注&amp;nbsp;" style="rhombus;whiteSpace=wrap;html=1;rounded=0;shadow=0;labelBackgroundColor=none;strokeWidth=1;fontFamily=Verdana;fontSize=8;align=center;fillColor=#fff2cc;strokeColor=#d6b656;" vertex="1" parent="IIWUCs54Z6hcs_hi1kmr-185">
          <mxGeometry x="38" y="45" width="110" height="70" as="geometry" />
        </mxCell>
        <mxCell id="IIWUCs54Z6hcs_hi1kmr-187" value="小组bank pic 同步配置" style="rounded=1;whiteSpace=wrap;html=1;shadow=0;labelBackgroundColor=none;strokeWidth=1;fontFamily=Verdana;fontSize=8;align=center;fillColor=#fff2cc;strokeColor=#d6b656;" vertex="1" parent="IIWUCs54Z6hcs_hi1kmr-185">
          <mxGeometry x="43" y="160" width="100" height="60" as="geometry" />
        </mxCell>
        <mxCell id="IIWUCs54Z6hcs_hi1kmr-188" style="edgeStyle=orthogonalEdgeStyle;rounded=0;orthogonalLoop=1;jettySize=auto;html=1;entryX=0.5;entryY=0;entryDx=0;entryDy=0;" edge="1" parent="IIWUCs54Z6hcs_hi1kmr-185" source="IIWUCs54Z6hcs_hi1kmr-186" target="IIWUCs54Z6hcs_hi1kmr-187">
          <mxGeometry relative="1" as="geometry" />
        </mxCell>
        <mxCell id="IIWUCs54Z6hcs_hi1kmr-189" value="有" style="edgeLabel;html=1;align=center;verticalAlign=middle;resizable=0;points=[];" vertex="1" connectable="0" parent="IIWUCs54Z6hcs_hi1kmr-188">
          <mxGeometry x="-0.1395" y="1" relative="1" as="geometry">
            <mxPoint as="offset" />
          </mxGeometry>
        </mxCell>
        <mxCell id="IIWUCs54Z6hcs_hi1kmr-211" style="edgeStyle=orthogonalEdgeStyle;rounded=0;orthogonalLoop=1;jettySize=auto;html=1;entryX=0;entryY=0.5;entryDx=0;entryDy=0;" edge="1" parent="IIWUCs54Z6hcs_hi1kmr-174" source="IIWUCs54Z6hcs_hi1kmr-177" target="IIWUCs54Z6hcs_hi1kmr-186">
          <mxGeometry relative="1" as="geometry" />
        </mxCell>
        <mxCell id="IIWUCs54Z6hcs_hi1kmr-212" value="3 同步翻译资源" style="swimlane;html=1;startSize=20;" vertex="1" parent="IIWUCs54Z6hcs_hi1kmr-174">
          <mxGeometry x="320" y="20" width="160" height="560" as="geometry" />
        </mxCell>
        <mxCell id="IIWUCs54Z6hcs_hi1kmr-213" value="小组bank pic 查看checklist中是否有翻译资源同步" style="rhombus;whiteSpace=wrap;html=1;rounded=0;shadow=0;labelBackgroundColor=none;strokeWidth=1;fontFamily=Verdana;fontSize=8;align=center;fillColor=#fff2cc;strokeColor=#d6b656;" vertex="1" parent="IIWUCs54Z6hcs_hi1kmr-212">
          <mxGeometry x="38" y="45" width="110" height="70" as="geometry" />
        </mxCell>
        <mxCell id="IIWUCs54Z6hcs_hi1kmr-214" value="小组bank pic 同步配置" style="rounded=1;whiteSpace=wrap;html=1;shadow=0;labelBackgroundColor=none;strokeWidth=1;fontFamily=Verdana;fontSize=8;align=center;fillColor=#fff2cc;strokeColor=#d6b656;" vertex="1" parent="IIWUCs54Z6hcs_hi1kmr-212">
          <mxGeometry x="43" y="160" width="100" height="60" as="geometry" />
        </mxCell>
        <mxCell id="IIWUCs54Z6hcs_hi1kmr-215" style="edgeStyle=orthogonalEdgeStyle;rounded=0;orthogonalLoop=1;jettySize=auto;html=1;entryX=0.5;entryY=0;entryDx=0;entryDy=0;" edge="1" parent="IIWUCs54Z6hcs_hi1kmr-212" source="IIWUCs54Z6hcs_hi1kmr-213" target="IIWUCs54Z6hcs_hi1kmr-214">
          <mxGeometry relative="1" as="geometry" />
        </mxCell>
        <mxCell id="IIWUCs54Z6hcs_hi1kmr-216" value="有" style="edgeLabel;html=1;align=center;verticalAlign=middle;resizable=0;points=[];" vertex="1" connectable="0" parent="IIWUCs54Z6hcs_hi1kmr-215">
          <mxGeometry x="-0.1395" y="1" relative="1" as="geometry">
            <mxPoint as="offset" />
          </mxGeometry>
        </mxCell>
        <mxCell id="IIWUCs54Z6hcs_hi1kmr-217" style="edgeStyle=orthogonalEdgeStyle;rounded=0;orthogonalLoop=1;jettySize=auto;html=1;exitX=1;exitY=0.5;exitDx=0;exitDy=0;entryX=0;entryY=0.5;entryDx=0;entryDy=0;" edge="1" parent="IIWUCs54Z6hcs_hi1kmr-174" source="IIWUCs54Z6hcs_hi1kmr-186" target="IIWUCs54Z6hcs_hi1kmr-213">
          <mxGeometry relative="1" as="geometry" />
        </mxCell>
        <mxCell id="IIWUCs54Z6hcs_hi1kmr-218" value="没有" style="edgeLabel;html=1;align=center;verticalAlign=middle;resizable=0;points=[];" vertex="1" connectable="0" parent="IIWUCs54Z6hcs_hi1kmr-217">
          <mxGeometry x="-0.0455" y="1" relative="1" as="geometry">
            <mxPoint as="offset" />
          </mxGeometry>
        </mxCell>
        <mxCell id="IIWUCs54Z6hcs_hi1kmr-219" style="edgeStyle=orthogonalEdgeStyle;rounded=0;orthogonalLoop=1;jettySize=auto;html=1;entryX=0;entryY=0.5;entryDx=0;entryDy=0;" edge="1" parent="IIWUCs54Z6hcs_hi1kmr-174" source="IIWUCs54Z6hcs_hi1kmr-213" target="IIWUCs54Z6hcs_hi1kmr-194">
          <mxGeometry relative="1" as="geometry" />
        </mxCell>
        <mxCell id="IIWUCs54Z6hcs_hi1kmr-220" value="没有" style="edgeLabel;html=1;align=center;verticalAlign=middle;resizable=0;points=[];" vertex="1" connectable="0" parent="IIWUCs54Z6hcs_hi1kmr-219">
          <mxGeometry x="-0.1017" y="2" relative="1" as="geometry">
            <mxPoint as="offset" />
          </mxGeometry>
        </mxCell>
        <mxCell id="IIWUCs54Z6hcs_hi1kmr-192" value="4 部署项目" style="swimlane;html=1;startSize=20;" vertex="1" parent="IIWUCs54Z6hcs_hi1kmr-174">
          <mxGeometry x="480" y="20" width="160" height="560" as="geometry" />
        </mxCell>
        <mxCell id="IIWUCs54Z6hcs_hi1kmr-193" style="edgeStyle=orthogonalEdgeStyle;rounded=0;orthogonalLoop=1;jettySize=auto;html=1;entryX=0.5;entryY=0;entryDx=0;entryDy=0;" edge="1" parent="IIWUCs54Z6hcs_hi1kmr-192" source="IIWUCs54Z6hcs_hi1kmr-194" target="IIWUCs54Z6hcs_hi1kmr-196">
          <mxGeometry relative="1" as="geometry" />
        </mxCell>
        <mxCell id="IIWUCs54Z6hcs_hi1kmr-194" value="小组bank pic通知bank pic 同步完成" style="rounded=1;whiteSpace=wrap;html=1;shadow=0;labelBackgroundColor=none;strokeWidth=1;fontFamily=Verdana;fontSize=8;align=center;fillColor=#fff2cc;strokeColor=#d6b656;" vertex="1" parent="IIWUCs54Z6hcs_hi1kmr-192">
          <mxGeometry x="30" y="50" width="100" height="60" as="geometry" />
        </mxCell>
        <mxCell id="IIWUCs54Z6hcs_hi1kmr-195" style="edgeStyle=orthogonalEdgeStyle;rounded=0;orthogonalLoop=1;jettySize=auto;html=1;exitX=0.5;exitY=1;exitDx=0;exitDy=0;entryX=0.5;entryY=0;entryDx=0;entryDy=0;" edge="1" parent="IIWUCs54Z6hcs_hi1kmr-192" source="IIWUCs54Z6hcs_hi1kmr-196" target="IIWUCs54Z6hcs_hi1kmr-201">
          <mxGeometry relative="1" as="geometry">
            <mxPoint x="80" y="260" as="targetPoint" />
          </mxGeometry>
        </mxCell>
        <mxCell id="IIWUCs54Z6hcs_hi1kmr-196" value="bank pic 根据checklist填写live部署确认文档" style="rounded=1;whiteSpace=wrap;html=1;shadow=0;labelBackgroundColor=none;strokeWidth=1;fontFamily=Verdana;fontSize=8;align=center;fillColor=#f8cecc;strokeColor=#b85450;" vertex="1" parent="IIWUCs54Z6hcs_hi1kmr-192">
          <mxGeometry x="30" y="160" width="100" height="60" as="geometry" />
        </mxCell>
        <mxCell id="IIWUCs54Z6hcs_hi1kmr-229" style="edgeStyle=orthogonalEdgeStyle;rounded=0;orthogonalLoop=1;jettySize=auto;html=1;entryX=0.5;entryY=0;entryDx=0;entryDy=0;" edge="1" parent="IIWUCs54Z6hcs_hi1kmr-192" source="IIWUCs54Z6hcs_hi1kmr-201" target="IIWUCs54Z6hcs_hi1kmr-224">
          <mxGeometry relative="1" as="geometry" />
        </mxCell>
        <mxCell id="IIWUCs54Z6hcs_hi1kmr-201" value="运维统一部署项目" style="rounded=1;whiteSpace=wrap;html=1;shadow=0;labelBackgroundColor=none;strokeWidth=1;fontFamily=Verdana;fontSize=8;align=center;fillColor=#d5e8d4;strokeColor=#82b366;" vertex="1" parent="IIWUCs54Z6hcs_hi1kmr-192">
          <mxGeometry x="30" y="245" width="100" height="35" as="geometry" />
        </mxCell>
        <mxCell id="IIWUCs54Z6hcs_hi1kmr-222" style="edgeStyle=orthogonalEdgeStyle;rounded=0;orthogonalLoop=1;jettySize=auto;html=1;entryX=0.5;entryY=0;entryDx=0;entryDy=0;" edge="1" parent="IIWUCs54Z6hcs_hi1kmr-192" source="IIWUCs54Z6hcs_hi1kmr-224" target="IIWUCs54Z6hcs_hi1kmr-225">
          <mxGeometry relative="1" as="geometry">
            <mxPoint x="80" y="455" as="targetPoint" />
          </mxGeometry>
        </mxCell>
        <mxCell id="IIWUCs54Z6hcs_hi1kmr-223" value="是" style="edgeLabel;html=1;align=center;verticalAlign=middle;resizable=0;points=[];" vertex="1" connectable="0" parent="IIWUCs54Z6hcs_hi1kmr-222">
          <mxGeometry x="0.0084" y="2" relative="1" as="geometry">
            <mxPoint y="-1" as="offset" />
          </mxGeometry>
        </mxCell>
        <mxCell id="IIWUCs54Z6hcs_hi1kmr-236" style="edgeStyle=orthogonalEdgeStyle;rounded=0;orthogonalLoop=1;jettySize=auto;html=1;entryX=0;entryY=0.5;entryDx=0;entryDy=0;" edge="1" parent="IIWUCs54Z6hcs_hi1kmr-192" source="IIWUCs54Z6hcs_hi1kmr-224" target="IIWUCs54Z6hcs_hi1kmr-226">
          <mxGeometry relative="1" as="geometry">
            <Array as="points">
              <mxPoint x="20" y="325" />
              <mxPoint x="20" y="448" />
            </Array>
          </mxGeometry>
        </mxCell>
        <mxCell id="IIWUCs54Z6hcs_hi1kmr-237" value="否" style="edgeLabel;html=1;align=center;verticalAlign=middle;resizable=0;points=[];" vertex="1" connectable="0" parent="IIWUCs54Z6hcs_hi1kmr-236">
          <mxGeometry x="-0.0932" y="-1" relative="1" as="geometry">
            <mxPoint as="offset" />
          </mxGeometry>
        </mxCell>
        <mxCell id="IIWUCs54Z6hcs_hi1kmr-224" value="项目pic 查看项目是和正常" style="rhombus;whiteSpace=wrap;html=1;rounded=0;shadow=0;labelBackgroundColor=none;strokeWidth=1;fontFamily=Verdana;fontSize=8;align=center;fillColor=#dae8fc;strokeColor=#6c8ebf;" vertex="1" parent="IIWUCs54Z6hcs_hi1kmr-192">
          <mxGeometry x="40" y="295" width="80" height="60" as="geometry" />
        </mxCell>
        <mxCell id="IIWUCs54Z6hcs_hi1kmr-225" value="结束" style="rounded=1;whiteSpace=wrap;html=1;shadow=0;labelBackgroundColor=none;strokeWidth=1;fontFamily=Verdana;fontSize=8;align=center;fillColor=#ffe6cc;strokeColor=#d79b00;" vertex="1" parent="IIWUCs54Z6hcs_hi1kmr-192">
          <mxGeometry x="40" y="385" width="80" height="30" as="geometry" />
        </mxCell>
        <mxCell id="IIWUCs54Z6hcs_hi1kmr-226" value="项目pic 查看问题原因" style="rounded=1;whiteSpace=wrap;html=1;shadow=0;labelBackgroundColor=none;strokeWidth=1;fontFamily=Verdana;fontSize=8;align=center;fillColor=#dae8fc;strokeColor=#6c8ebf;" vertex="1" parent="IIWUCs54Z6hcs_hi1kmr-192">
          <mxGeometry x="40" y="425" width="80" height="45" as="geometry" />
        </mxCell>
        <mxCell id="IIWUCs54Z6hcs_hi1kmr-235" value="bank pic辅助部署代码" style="rounded=1;whiteSpace=wrap;html=1;shadow=0;labelBackgroundColor=none;strokeWidth=1;fontFamily=Verdana;fontSize=8;align=center;fillColor=#f8cecc;strokeColor=#b85450;" vertex="1" parent="IIWUCs54Z6hcs_hi1kmr-192">
          <mxGeometry x="40" y="495" width="80" height="45" as="geometry" />
        </mxCell>
        <mxCell id="IIWUCs54Z6hcs_hi1kmr-202" value="" style="rounded=0;whiteSpace=wrap;html=1;fillColor=#f8cecc;strokeColor=#b85450;" vertex="1" parent="1">
          <mxGeometry x="510" y="855" width="40" height="20" as="geometry" />
        </mxCell>
        <mxCell id="IIWUCs54Z6hcs_hi1kmr-203" value="bank&amp;nbsp; pic" style="text;html=1;strokeColor=none;fillColor=none;align=center;verticalAlign=middle;whiteSpace=wrap;rounded=0;" vertex="1" parent="1">
          <mxGeometry x="530" y="850" width="90" height="30" as="geometry" />
        </mxCell>
        <mxCell id="IIWUCs54Z6hcs_hi1kmr-204" value="" style="rounded=0;whiteSpace=wrap;html=1;fillColor=#fff2cc;strokeColor=#d6b656;" vertex="1" parent="1">
          <mxGeometry x="610" y="855" width="40" height="20" as="geometry" />
        </mxCell>
        <mxCell id="IIWUCs54Z6hcs_hi1kmr-205" value="小组 bank&amp;nbsp; pic" style="text;html=1;strokeColor=none;fillColor=none;align=center;verticalAlign=middle;whiteSpace=wrap;rounded=0;" vertex="1" parent="1">
          <mxGeometry x="645" y="850" width="90" height="30" as="geometry" />
        </mxCell>
        <mxCell id="IIWUCs54Z6hcs_hi1kmr-206" value="" style="rounded=0;whiteSpace=wrap;html=1;fillColor=#dae8fc;strokeColor=#6c8ebf;" vertex="1" parent="1">
          <mxGeometry x="741" y="855" width="40" height="20" as="geometry" />
        </mxCell>
        <mxCell id="IIWUCs54Z6hcs_hi1kmr-207" value="项目pic" style="text;html=1;strokeColor=none;fillColor=none;align=center;verticalAlign=middle;whiteSpace=wrap;rounded=0;" vertex="1" parent="1">
          <mxGeometry x="757" y="850" width="90" height="30" as="geometry" />
        </mxCell>
        <mxCell id="IIWUCs54Z6hcs_hi1kmr-233" value="" style="rounded=0;whiteSpace=wrap;html=1;fillColor=#d5e8d4;strokeColor=#82b366;" vertex="1" parent="1">
          <mxGeometry x="830" y="855" width="40" height="20" as="geometry" />
        </mxCell>
        <mxCell id="IIWUCs54Z6hcs_hi1kmr-234" value="运维" style="text;html=1;strokeColor=none;fillColor=none;align=center;verticalAlign=middle;whiteSpace=wrap;rounded=0;" vertex="1" parent="1">
          <mxGeometry x="846" y="850" width="90" height="30" as="geometry" />
        </mxCell>
      </root>
    </mxGraphModel>
  </diagram>
</mxfile>
